<svg xmlns="http://www.w3.org/2000/svg" version="1.1" xmlns:xlink="http://www.w3.org/1999/xlink" xmlns:svgjs="http://svgjs.dev/svgjs" width="362" height="164"><svg width="362" height="164" viewBox="0 0 362 164" fill="none" xmlns="http://www.w3.org/2000/svg">
<g filter="url(#filter0_d_2_30)">
<path d="M4.55114 153L28.6989 7.54545H126.71L122.449 32.9006H55.1903L49.5085 67.5597H111.724L107.463 92.9148H45.2472L39.5653 127.645H107.108L102.847 153H4.55114ZM203.362 43.9091L199.597 66.6364H132.268L136.032 43.9091H203.362ZM133.191 153L152.722 36.0256C154.001 28.1184 156.605 21.5606 160.535 16.3523C164.512 11.1439 169.413 7.23768 175.237 4.63351C181.108 2.02935 187.452 0.727263 194.271 0.727263C198.911 0.727263 203.101 1.08238 206.842 1.79261C210.629 2.50284 213.376 3.14204 215.08 3.71023L206.06 26.4375C204.924 26.0587 203.527 25.7036 201.87 25.3722C200.213 25.0407 198.461 24.875 196.614 24.875C192.211 24.875 188.968 25.9167 186.884 28C184.848 30.036 183.475 32.9006 182.765 36.5938L163.376 153H133.191ZM249.118 155.131C237.944 155.131 228.687 152.858 221.348 148.312C214.009 143.72 208.848 137.233 205.865 128.852C202.929 120.424 202.432 110.457 204.374 98.9517C206.268 87.7301 210.079 77.8816 215.808 69.4062C221.585 60.9309 228.829 54.3258 237.541 49.5909C246.253 44.8561 255.96 42.4886 266.661 42.4886C273.857 42.4886 280.368 43.6487 286.192 45.9688C292.063 48.2415 296.94 51.6979 300.822 56.3381C304.705 60.9309 307.357 66.6837 308.777 73.5966C310.245 80.5095 310.221 88.6061 308.706 97.8864L307.357 106.196H215.311L218.223 87.446H281.859C282.57 83.09 282.286 79.2311 281.007 75.8693C279.729 72.5076 277.598 69.8797 274.615 67.9858C271.632 66.0445 267.963 65.0739 263.607 65.0739C259.156 65.0739 254.989 66.1629 251.107 68.3409C247.224 70.5189 243.957 73.3835 241.305 76.9347C238.701 80.4384 237.02 84.25 236.263 88.3693L232.925 106.977C231.978 112.706 232.167 117.465 233.493 121.253C234.866 125.041 237.233 127.882 240.595 129.776C243.957 131.622 248.218 132.545 253.379 132.545C256.741 132.545 259.89 132.072 262.825 131.125C265.808 130.178 268.46 128.781 270.78 126.935C273.1 125.041 274.994 122.697 276.462 119.903L304.089 121.75C301.533 128.473 297.65 134.345 292.442 139.364C287.233 144.335 280.96 148.218 273.621 151.011C266.329 153.758 258.161 155.131 249.118 155.131ZM338.447 154.847C333.665 154.847 329.735 153.189 326.657 149.875C323.627 146.561 322.254 142.536 322.538 137.801C322.869 133.114 324.834 129.16 328.433 125.94C332.078 122.673 336.269 121.04 341.004 121.04C345.549 121.04 349.384 122.673 352.509 125.94C355.634 129.207 357.007 133.161 356.629 137.801C356.392 140.926 355.374 143.791 353.575 146.395C351.823 148.952 349.597 151.011 346.898 152.574C344.2 154.089 341.382 154.847 338.447 154.847Z" fill="black"></path>
</g>
<defs>
<filter id="SvgjsFilter1042" x="0.551147" y="0.727295" width="360.646" height="162.403" filterUnits="userSpaceOnUse" color-interpolation-filters="sRGB">
<feFlood flood-opacity="0" result="BackgroundImageFix"></feFlood>
<feColorMatrix in="SourceAlpha" type="matrix" values="0 0 0 0 0 0 0 0 0 0 0 0 0 0 0 0 0 0 127 0" result="hardAlpha"></feColorMatrix>
<feOffset dy="4"></feOffset>
<feGaussianBlur stdDeviation="2"></feGaussianBlur>
<feComposite in2="hardAlpha" operator="out"></feComposite>
<feColorMatrix type="matrix" values="0 0 0 0 0 0 0 0 0 0 0 0 0 0 0 0 0 0 0.25 0"></feColorMatrix>
<feBlend mode="normal" in2="BackgroundImageFix" result="effect1_dropShadow_2_30"></feBlend>
<feBlend mode="normal" in="SourceGraphic" in2="effect1_dropShadow_2_30" result="shape"></feBlend>
</filter>
</defs>
</svg><style>@media (prefers-color-scheme: light) { :root { filter: none; } }
@media (prefers-color-scheme: dark) { :root { filter: none; } }
</style></svg>