<svg width="823" height="716" viewBox="0 0 823 716" fill="none" xmlns="http://www.w3.org/2000/svg">
<rect width="823" height="716" rx="175" fill="#F8F8F8"/>
<g clip-path="url(#clip0_2_15)">
<path d="M411.723 152.79C320.515 152.79 263.507 198.391 240.705 289.589C274.909 243.989 314.812 226.889 360.418 238.29C386.437 244.793 405.035 263.67 425.621 284.561C459.157 318.598 497.967 357.989 582.741 357.989C673.95 357.989 730.957 312.388 753.759 221.19C719.555 266.79 679.652 283.89 634.046 272.49C608.028 265.986 589.429 247.11 568.843 226.218C535.308 192.181 496.497 152.79 411.723 152.79ZM240.705 357.989C149.497 357.989 92.4891 403.59 69.6876 494.789C103.891 449.188 143.794 432.088 189.4 443.489C215.419 449.992 234.017 468.869 254.603 489.76C288.139 523.797 326.949 563.188 411.723 563.188C502.932 563.188 559.94 517.588 582.741 426.389C548.537 471.99 508.634 489.09 463.029 477.689C437.01 471.185 418.412 452.309 397.825 431.417C364.29 397.38 325.479 357.989 240.705 357.989Z" fill="url(#paint0_linear_2_15)"/>
</g>
<defs>
<linearGradient id="paint0_linear_2_15" x1="-4795.21" y1="20324.7" x2="-2770.03" y2="43052.2" gradientUnits="userSpaceOnUse">
<stop stop-color="#2298BD"/>
<stop offset="1" stop-color="#0ED7B5"/>
</linearGradient>
<clipPath id="clip0_2_15">
<rect width="684.071" height="411.493" fill="white" transform="translate(69.6876 152.243)"/>
</clipPath>
</defs>
</svg>
