<svg width="800" height="800" viewBox="0 0 800 800" fill="none" xmlns="http://www.w3.org/2000/svg">
<rect x="117" y="131" width="565" height="537" rx="100" fill="#D9D9D9"/>
<path d="M597.262 395.1L580.475 384.7C580.334 383.069 580.176 381.44 580 379.813L594.425 366.35C595.152 365.683 595.696 364.839 596.003 363.901C596.31 362.963 596.37 361.962 596.178 360.994C595.986 360.025 595.548 359.123 594.906 358.373C594.264 357.623 593.44 357.051 592.513 356.713L574.062 349.813C573.602 348.219 573.123 346.632 572.625 345.05L584.125 329.063C584.703 328.265 585.067 327.332 585.183 326.353C585.299 325.375 585.162 324.383 584.786 323.472C584.41 322.561 583.808 321.762 583.036 321.15C582.263 320.538 581.348 320.133 580.375 319.975L560.913 316.812C560.163 315.337 559.375 313.888 558.575 312.438L566.75 294.5C567.168 293.604 567.348 292.616 567.272 291.631C567.197 290.646 566.869 289.697 566.32 288.875C565.771 288.053 565.019 287.387 564.138 286.94C563.256 286.494 562.275 286.282 561.287 286.325L541.55 287.013C540.528 285.738 539.486 284.479 538.425 283.238L542.962 264C543.193 263.041 543.174 262.039 542.906 261.09C542.639 260.14 542.132 259.276 541.434 258.578C540.737 257.881 539.872 257.374 538.923 257.106C537.974 256.839 536.971 256.819 536.013 257.05L516.787 261.575C515.537 260.525 514.288 259.488 513 258.45L513.688 238.725C513.731 237.738 513.519 236.756 513.072 235.875C512.625 234.993 511.959 234.242 511.138 233.693C510.316 233.144 509.367 232.816 508.381 232.74C507.396 232.665 506.408 232.845 505.513 233.262L487.575 241.438C486.126 240.637 484.668 239.853 483.2 239.088L480.037 219.637C479.88 218.666 479.477 217.751 478.866 216.979C478.256 216.207 477.458 215.604 476.549 215.227C475.639 214.85 474.649 214.712 473.671 214.825C472.694 214.938 471.761 215.3 470.962 215.875L454.962 227.375C453.386 226.874 451.802 226.395 450.212 225.938L443.312 207.488C442.972 206.562 442.4 205.739 441.651 205.098C440.901 204.457 440 204.019 439.033 203.826C438.066 203.633 437.065 203.691 436.127 203.995C435.189 204.299 434.345 204.839 433.675 205.563L420.213 220.013C418.588 219.838 416.963 219.663 415.325 219.538L404.925 202.738C404.407 201.9 403.685 201.209 402.825 200.73C401.965 200.25 400.997 199.999 400.012 199.999C399.028 199.999 398.06 200.25 397.2 200.73C396.341 201.209 395.618 201.9 395.1 202.738L384.7 219.538C383.075 219.663 381.438 219.838 379.813 220.013L366.35 205.575C365.676 204.861 364.832 204.329 363.897 204.031C362.961 203.732 361.966 203.675 361.002 203.866C360.039 204.057 359.14 204.49 358.39 205.123C357.64 205.757 357.063 206.57 356.713 207.488L349.813 225.938C348.213 226.4 346.625 226.888 345.063 227.388L329.063 215.875C328.266 215.29 327.333 214.92 326.352 214.8C325.372 214.681 324.377 214.816 323.463 215.193C322.55 215.57 321.749 216.175 321.138 216.952C320.527 217.728 320.127 218.649 319.975 219.625L316.8 239.088C315.338 239.85 313.887 240.638 312.425 241.438L294.5 233.262C293.605 232.845 292.619 232.666 291.634 232.74C290.65 232.815 289.702 233.142 288.881 233.69C288.059 234.237 287.393 234.987 286.945 235.866C286.498 236.746 286.284 237.726 286.325 238.713L287.013 258.463C285.738 259.488 284.475 260.525 283.225 261.588L264 257.05C263.042 256.828 262.042 256.853 261.096 257.123C260.15 257.394 259.289 257.9 258.592 258.595C257.896 259.29 257.388 260.151 257.116 261.097C256.844 262.042 256.817 263.041 257.038 264L261.575 283.238C260.513 284.488 259.475 285.738 258.45 287.013L238.713 286.325C237.728 286.289 236.75 286.505 235.872 286.954C234.995 287.403 234.247 288.068 233.699 288.888C233.152 289.707 232.823 290.653 232.744 291.635C232.666 292.618 232.84 293.604 233.25 294.5L241.425 312.45C240.637 313.888 239.85 315.338 239.088 316.825L219.637 319.975C218.664 320.131 217.747 320.535 216.973 321.146C216.199 321.757 215.595 322.557 215.218 323.468C214.841 324.379 214.703 325.371 214.818 326.351C214.933 327.33 215.297 328.264 215.875 329.063L227.375 345.05C226.875 346.625 226.4 348.212 225.938 349.8L207.488 356.713C206.565 357.057 205.747 357.632 205.109 358.382C204.471 359.132 204.036 360.032 203.844 360.998C203.653 361.964 203.711 362.962 204.014 363.899C204.317 364.836 204.854 365.679 205.575 366.35L220.013 379.813C219.825 381.438 219.663 383.062 219.525 384.7L202.738 395.1C201.9 395.618 201.209 396.341 200.73 397.2C200.25 398.06 199.999 399.028 199.999 400.012C199.999 400.997 200.25 401.965 200.73 402.825C201.209 403.685 201.9 404.407 202.738 404.925L219.525 415.312C219.663 416.95 219.825 418.588 220.013 420.213L205.575 433.675C204.854 434.346 204.317 435.189 204.014 436.126C203.711 437.063 203.653 438.061 203.844 439.027C204.036 439.993 204.471 440.893 205.109 441.643C205.747 442.393 206.565 442.968 207.488 443.312L225.938 450.212C226.4 451.812 226.888 453.4 227.388 454.962L215.875 470.962C215.3 471.761 214.938 472.694 214.825 473.671C214.712 474.649 214.85 475.639 215.227 476.549C215.604 477.458 216.207 478.256 216.979 478.866C217.751 479.477 218.666 479.88 219.637 480.037L239.088 483.2C239.85 484.675 240.625 486.138 241.438 487.575L233.25 505.513C232.84 506.409 232.666 507.395 232.744 508.377C232.823 509.359 233.152 510.305 233.699 511.125C234.247 511.944 234.995 512.61 235.872 513.059C236.75 513.507 237.728 513.724 238.713 513.688L258.45 513C259.475 514.288 260.513 515.537 261.575 516.787L257.038 536.025C256.805 536.985 256.823 537.988 257.091 538.939C257.359 539.89 257.868 540.755 258.567 541.452C259.267 542.149 260.134 542.655 261.086 542.919C262.037 543.184 263.041 543.199 264 542.962L283.225 538.438C284.475 539.5 285.738 540.525 287.013 541.55L286.325 561.3C286.288 562.285 286.503 563.263 286.952 564.141C287.401 565.019 288.067 565.767 288.887 566.313C289.707 566.86 290.654 567.187 291.636 567.264C292.619 567.34 293.605 567.163 294.5 566.75L312.438 558.575C313.875 559.375 315.337 560.163 316.812 560.925L319.975 580.363C320.126 581.339 320.526 582.26 321.136 583.038C321.747 583.815 322.546 584.422 323.459 584.801C324.371 585.181 325.366 585.319 326.348 585.202C327.329 585.086 328.264 584.719 329.063 584.137L345.05 572.612C346.625 573.112 348.212 573.612 349.8 574.062L356.7 592.513C357.039 593.44 357.611 594.264 358.361 594.906C359.11 595.548 360.013 595.986 360.981 596.178C361.949 596.37 362.951 596.31 363.889 596.003C364.827 595.696 365.67 595.152 366.337 594.425L379.813 579.987C381.438 580.175 383.062 580.337 384.7 580.487L395.1 597.275C395.62 598.109 396.344 598.798 397.203 599.275C398.063 599.752 399.029 600.003 400.012 600.003C400.996 600.003 401.962 599.752 402.822 599.275C403.681 598.798 404.405 598.109 404.925 597.275L415.312 580.475C416.95 580.337 418.588 580.175 420.213 579.987L433.675 594.425C434.343 595.149 435.185 595.69 436.122 595.995C437.058 596.3 438.058 596.36 439.024 596.168C439.99 595.976 440.891 595.539 441.64 594.899C442.388 594.259 442.96 593.437 443.3 592.513L450.212 574.062C451.8 573.612 453.387 573.112 454.962 572.612L470.962 584.137C471.763 584.709 472.696 585.067 473.674 585.178C474.651 585.289 475.641 585.149 476.549 584.771C477.457 584.394 478.254 583.79 478.864 583.019C479.475 582.248 479.879 581.333 480.037 580.363L483.213 560.913C484.675 560.163 486.125 559.363 487.575 558.575L505.513 566.75C506.408 567.164 507.395 567.341 508.379 567.264C509.363 567.187 510.311 566.859 511.131 566.31C511.952 565.762 512.618 565.012 513.065 564.133C513.513 563.253 513.727 562.274 513.688 561.287L513 541.538C514.275 540.538 515.537 539.5 516.787 538.438L536.013 542.962C536.971 543.196 537.973 543.179 538.922 542.913C539.872 542.648 540.738 542.142 541.436 541.445C542.134 540.749 542.641 539.884 542.908 538.935C543.175 537.986 543.194 536.984 542.962 536.025L538.438 516.787C539.488 515.537 540.525 514.288 541.55 513L561.3 513.688C562.286 513.728 563.266 513.515 564.146 513.067C565.026 512.62 565.775 511.953 566.323 511.132C566.87 510.311 567.197 509.362 567.272 508.378C567.347 507.394 567.167 506.407 566.75 505.513L558.575 487.575C559.375 486.138 560.15 484.675 560.913 483.2L580.363 480.037C581.338 479.886 582.258 479.487 583.034 478.877C583.81 478.268 584.416 477.469 584.794 476.557C585.172 475.646 585.309 474.652 585.192 473.672C585.075 472.692 584.707 471.759 584.125 470.962L572.625 454.962C573.122 453.385 573.601 451.801 574.062 450.212L592.513 443.312C593.44 442.974 594.264 442.402 594.906 441.652C595.548 440.902 595.986 440 596.178 439.031C596.37 438.063 596.31 437.062 596.003 436.124C595.696 435.186 595.152 434.342 594.425 433.675L579.987 420.213C580.162 418.588 580.325 416.95 580.475 415.312L597.262 404.925C598.1 404.407 598.791 403.685 599.27 402.825C599.75 401.965 600.001 400.997 600.001 400.012C600.001 399.028 599.75 398.06 599.27 397.2C598.791 396.341 598.1 395.618 597.262 395.1ZM484.875 534.4C481.863 533.668 479.255 531.789 477.607 529.164C475.959 526.538 475.401 523.373 476.05 520.342C476.7 517.311 478.507 514.653 481.087 512.934C483.666 511.215 486.815 510.57 489.862 511.137C492.886 511.86 495.507 513.737 497.165 516.368C498.822 518.998 499.384 522.173 498.731 525.212C498.077 528.252 496.261 530.915 493.669 532.632C491.077 534.349 487.929 534.984 484.875 534.4ZM479.162 495.813C477.772 495.515 476.337 495.495 474.938 495.752C473.54 496.01 472.206 496.54 471.013 497.313C469.82 498.086 468.79 499.087 467.984 500.258C467.177 501.429 466.609 502.747 466.312 504.138L460.35 531.962C441.394 540.559 420.815 544.992 400 544.962C378 544.962 357.125 540.087 338.387 531.375L332.425 503.562C332.129 502.171 331.563 500.851 330.757 499.679C329.951 498.507 328.922 497.505 327.728 496.73C326.535 495.956 325.2 495.424 323.801 495.166C322.402 494.908 320.966 494.928 319.575 495.225L295.013 500.5C290.448 495.803 286.205 490.804 282.312 485.537H401.825C403.175 485.537 404.075 485.287 404.075 484.062V441.787C404.075 440.55 403.175 440.312 401.825 440.312H366.875V413.5H404.675C408.125 413.5 423.125 414.488 427.925 433.663C429.425 439.55 432.725 458.737 434.975 464.875C437.225 471.762 446.375 485.525 456.125 485.525H515.675C516.401 485.519 517.124 485.447 517.837 485.313C513.712 490.925 509.175 496.238 504.3 501.188L479.175 495.8L479.162 495.813ZM313.875 533.813C310.827 534.38 307.679 533.735 305.099 532.016C302.52 530.297 300.713 527.639 300.063 524.608C299.413 521.577 299.972 518.412 301.62 515.786C303.268 513.161 305.875 511.282 308.888 510.55C310.416 510.223 311.993 510.201 313.53 510.484C315.067 510.767 316.533 511.35 317.845 512.2C319.157 513.049 320.288 514.149 321.175 515.436C322.061 516.723 322.686 518.172 323.013 519.7C323.339 521.228 323.362 522.806 323.079 524.343C322.796 525.88 322.213 527.346 321.363 528.658C320.513 529.969 319.414 531.101 318.127 531.987C316.84 532.874 315.391 533.498 313.862 533.825L313.875 533.813ZM268.538 349.975C269.17 351.401 269.516 352.937 269.555 354.496C269.594 356.056 269.326 357.607 268.765 359.063C268.205 360.518 267.363 361.849 266.288 362.98C265.213 364.11 263.926 365.017 262.5 365.65C261.074 366.283 259.538 366.629 257.979 366.668C256.419 366.707 254.868 366.438 253.412 365.878C251.957 365.317 250.626 364.475 249.495 363.4C248.365 362.325 247.458 361.038 246.825 359.612C245.547 356.733 245.465 353.464 246.597 350.525C247.73 347.585 249.983 345.216 252.863 343.937C255.742 342.659 259.011 342.578 261.95 343.71C264.89 344.842 267.259 347.096 268.538 349.975ZM254.6 383.013L280.188 371.638C282.813 370.467 284.867 368.303 285.899 365.619C286.93 362.936 286.854 359.953 285.688 357.325L280.425 345.412H301.15V438.837H259.338C254.176 420.708 252.575 401.753 254.6 383.013ZM366.888 373.938V346.4H416.237C418.787 346.4 434.237 349.35 434.237 360.9C434.237 370.488 422.388 373.938 412.638 373.938H366.888ZM546.25 398.725C546.25 402.375 546.112 405.987 545.837 409.575H530.837C529.337 409.575 528.737 410.575 528.737 412.038V418.925C528.737 435.15 519.587 438.675 511.575 439.575C503.95 440.425 495.475 436.375 494.437 431.7C489.937 406.387 482.437 400.975 470.587 391.625C485.287 382.3 500.588 368.525 500.588 350.088C500.588 330.175 486.937 317.638 477.637 311.488C464.587 302.888 450.138 301.163 446.238 301.163H291.063C312.504 277.181 341.263 260.949 372.875 254.988L391.162 274.175C395.3 278.5 402.163 278.675 406.475 274.525L426.95 254.95C447.808 258.866 467.566 267.272 484.852 279.583C502.139 291.895 516.542 307.818 527.063 326.25L513.05 357.9C511.887 360.528 511.813 363.51 512.844 366.192C513.875 368.875 515.926 371.04 518.55 372.213L545.538 384.188C546 388.975 546.25 393.813 546.25 398.725ZM391.175 238.663C392.303 237.584 393.633 236.738 395.088 236.174C396.543 235.61 398.095 235.338 399.655 235.374C401.216 235.41 402.754 235.753 404.181 236.384C405.609 237.015 406.898 237.921 407.975 239.05C409.054 240.181 409.899 241.513 410.462 242.971C411.026 244.429 411.297 245.983 411.26 247.545C411.223 249.108 410.878 250.647 410.246 252.077C409.614 253.506 408.706 254.797 407.575 255.875C406.447 256.952 405.118 257.797 403.663 258.36C402.209 258.923 400.658 259.194 399.098 259.157C397.539 259.119 396.002 258.775 394.576 258.143C393.15 257.512 391.863 256.605 390.788 255.475C388.615 253.192 387.435 250.14 387.508 246.989C387.581 243.837 388.899 240.843 391.175 238.663ZM530.212 350.55C531.492 347.671 533.863 345.418 536.804 344.287C539.745 343.156 543.015 343.239 545.894 344.519C548.773 345.798 551.026 348.169 552.157 351.11C553.288 354.051 553.205 357.321 551.925 360.2C551.291 361.626 550.383 362.913 549.252 363.987C548.121 365.062 546.79 365.903 545.333 366.463C543.877 367.023 542.325 367.291 540.766 367.251C539.206 367.212 537.669 366.865 536.244 366.231C534.818 365.598 533.531 364.689 532.457 363.558C531.382 362.427 530.54 361.096 529.98 359.64C529.42 358.184 529.153 356.631 529.192 355.072C529.232 353.512 529.579 351.976 530.212 350.55Z" fill="black"/>
</svg>
