<svg width="3059" height="1580" viewBox="0 0 3059 1580" fill="none" xmlns="http://www.w3.org/2000/svg">
<rect width="3059" height="1580" rx="135" fill="#EAEAEA"/>
<g clip-path="url(#clip0_2_28)">
<path d="M1250.88 720.952C1217.58 720.952 1190.51 730.812 1169.75 750.51C1149 770.231 1138.47 796.079 1138.47 827.756C1138.47 844.168 1141.08 859.135 1146.23 872.847C1151.38 886.589 1159.4 899.32 1170.18 910.826C1180.96 922.336 1202.54 937.972 1234.69 957.86C1274.16 981.945 1299.97 1001.5 1312.37 1016.76C1324.77 1032.01 1330.92 1047.99 1330.92 1064.66C1330.92 1086.97 1323.58 1104.78 1308.48 1118.17C1293.36 1131.56 1273.14 1138.23 1248.07 1138.23C1221.63 1138.23 1198.59 1128.91 1178.81 1110.4C1159.03 1091.86 1149.05 1067.34 1148.82 1036.61H1136.52V1148.16H1148.82C1152.58 1137.59 1157.77 1132.2 1164.57 1132.2C1167.84 1132.2 1175.51 1134.45 1187.44 1138.66C1216.48 1149 1240.33 1153.98 1259.08 1153.98C1291.38 1153.98 1318.95 1142.67 1341.93 1119.68C1364.87 1096.7 1376.45 1068.97 1376.45 1036.61C1376.45 1011.52 1368.8 989.185 1353.8 969.727C1338.79 950.239 1309.6 927.574 1265.98 901.546C1228.44 878.993 1204.08 860.628 1192.84 846.311C1181.58 832.012 1175.79 816.196 1175.79 798.842C1175.79 780.072 1182.69 764.993 1196.29 753.746C1209.89 742.494 1227.71 736.919 1250.02 736.919C1275.11 736.919 1296.03 744.369 1312.58 759.36C1329.12 774.376 1338.69 795.186 1341.5 821.927H1353.8V725.272H1342.36C1340.96 730.197 1339.67 733.346 1338.48 734.762C1337.32 736.168 1335.09 736.919 1331.79 736.919C1327.81 736.919 1320.72 735.245 1310.64 731.955C1289.06 724.691 1269.17 720.952 1250.88 720.952H1250.88ZM1652.84 720.952C1612.27 720.952 1575.43 730.52 1542.15 749.65C1508.82 768.747 1482.44 795.269 1462.97 829.049C1443.51 862.83 1433.84 898.7 1433.84 936.932C1433.84 988.286 1450.65 1034.05 1484.55 1074.15C1518.45 1114.23 1559.09 1139.21 1606.24 1148.81C1617.01 1154.42 1632.43 1168.92 1652.62 1192.39C1675.37 1218.87 1694.62 1237.97 1710.45 1249.35C1725.92 1260.5 1743.12 1269.03 1761.36 1274.6C1779.42 1280.09 1798.95 1282.8 1820.05 1282.8C1845.62 1282.8 1868.5 1278.35 1888.66 1269.2L1884.13 1257.98C1872.43 1262.2 1859.95 1264.24 1846.81 1264.24C1828.97 1264.24 1810.94 1258.35 1792.87 1246.55C1774.82 1234.7 1752.25 1212.12 1725.34 1178.79C1712.68 1162.83 1703.95 1152.76 1699.01 1148.81C1750.6 1138.73 1793.01 1113.73 1826.1 1073.72C1859.16 1033.73 1875.72 988.086 1875.72 936.927C1875.72 876.191 1854.11 825.139 1811.21 783.524C1768.27 741.899 1715.47 720.952 1652.84 720.952ZM1903.77 720.952L1904.42 734.112C1931.43 734.112 1946.56 742.069 1949.94 758.061C1951.2 763.788 1951.78 774.351 1951.88 789.562L1951.67 1080.63C1951.44 1102.36 1948.35 1116.24 1942.39 1122.27C1936.43 1128.25 1926.34 1132 1911.75 1133.48L1911.1 1146.65H2180.37L2187.28 1080.63H2174.98C2171.46 1098.61 2163.41 1111.5 2150.6 1118.82C2137.75 1126.19 2115.02 1129.82 2082.2 1129.82H2056.74C2027.21 1129.82 2010.12 1119.14 2005.61 1097.67C2004.68 1093.42 2004.36 1088.87 2004.31 1083.86L2005.39 789.562C2005.39 767.859 2008.13 753.317 2013.81 746.194C2019.54 739.101 2029.89 735.133 2044.87 734.112L2044.23 720.952H1903.77ZM1657.15 736.914C1702.91 736.914 1740.27 754.942 1769.13 791.29C1797.98 827.653 1812.29 877.489 1812.29 940.598C1812.29 1000.4 1797.78 1048.28 1768.7 1084.29C1739.62 1120.3 1700.93 1138.23 1652.84 1138.23C1606.64 1138.23 1569.17 1119.74 1540.43 1082.57C1511.7 1045.4 1497.49 997.137 1497.49 937.791C1497.49 876.811 1511.88 827.995 1540.86 791.505C1569.82 755.059 1608.61 736.919 1657.15 736.919L1657.15 736.914ZM2276.39 799.491C2269.82 799.491 2264.81 801.708 2261.07 806.179C2257.24 810.631 2256.06 816.025 2257.4 822.576C2258.69 828.932 2262.28 834.497 2267.97 839.188C2273.63 843.875 2279.74 846.311 2286.31 846.311C2292.66 846.311 2297.51 843.875 2300.98 839.188C2304.46 834.502 2305.52 828.932 2304.22 822.576C2302.88 816.025 2299.42 810.631 2294.08 806.174C2288.67 801.708 2282.74 799.491 2276.39 799.491ZM2453.96 844.153C2442.8 887.082 2418.61 910.313 2381.46 914.057L2381.89 926.359H2425.26L2424.4 1071.78C2424.47 1096.64 2425.23 1113.2 2426.98 1121.62C2431.26 1141.79 2444.43 1152.04 2466.47 1152.04C2498.36 1152.04 2531.81 1132.62 2566.8 1093.79L2556.23 1084.73C2530.97 1110.3 2508.63 1123.13 2489.13 1123.13C2477.14 1123.13 2469.71 1116.24 2466.9 1102.63C2466.13 1099.33 2465.83 1095.47 2465.83 1090.98L2466.26 926.359H2532.5L2531.85 906.72H2466.47V844.153H2453.96ZM2710.06 898.954C2673.01 898.954 2642.88 916.942 2619.45 952.68C2596.14 988.477 2588.92 1028.14 2598.08 1071.78C2603.48 1097.34 2614.22 1117.15 2630.66 1131.11C2647.08 1145.07 2667.91 1152.04 2692.81 1152.04C2715.98 1152.04 2748.26 1146.17 2761.85 1134.35C2775.47 1122.53 2788.01 1103.39 2799.61 1077.18L2790.33 1067.46C2771.84 1101.48 2734.53 1118.6 2706.4 1118.6C2667.71 1118.6 2644.02 1097.38 2635.19 1055.16C2634.01 1049.46 2633.14 1043.7 2632.61 1037.9C2678.63 1030.62 2713.5 1017.72 2737.03 999.07C2760.55 980.408 2784.16 960.627 2779.76 939.734C2777.13 927.316 2770.69 917.552 2760.77 910.176C2750.72 902.8 2724.64 898.954 2710.06 898.954ZM2305.09 900.467L2225.25 918.807V933.047L2252.87 929.595C2266.24 929.595 2274.12 935.648 2276.6 947.716C2277.44 951.753 2277.97 957.43 2278.12 964.547L2277.25 1095.08C2277.03 1113.14 2275.02 1123.64 2270.99 1126.8C2266.93 1129.95 2256.21 1131.55 2238.84 1131.55L2238.41 1143.84H2365.06L2364.85 1131.54C2347.25 1131.54 2335.84 1130.15 2330.76 1127.44C2325.76 1124.76 2322.31 1119.85 2320.83 1112.34C2319.69 1106.93 2319.18 1097.61 2319.11 1084.73L2319.54 900.467H2305.08H2305.09ZM2689.78 924.631C2697.49 924.631 2704.94 927.608 2712.43 933.476C2719.84 939.324 2724.34 945.826 2725.82 952.895C2733.04 987.603 2702.27 1011.59 2633.04 1024.96C2631.06 999.656 2635.45 976.678 2646.63 955.917C2657.73 935.17 2672.19 924.631 2689.78 924.631Z" fill="#003B57"/>
<path d="M1072.06 222.581H385.035C338.987 222.581 301.316 260.257 301.316 306.3V1063.96C301.316 1110 338.987 1147.68 385.035 1147.68H837.523C832.388 922.532 909.273 485.591 1072.06 222.581Z" fill="#0F80CC"/>
<path d="M1047.1 247.004H385.035C352.338 247.004 325.733 273.604 325.733 306.305V1008.68C475.676 951.138 700.722 901.482 856.327 903.738C887.598 740.234 979.499 419.807 1047.1 247.004Z" fill="url(#paint0_linear_2_28)"/>
<path d="M1232.31 197.783C1185.25 155.826 1128.28 172.677 1072.06 222.581C1063.71 229.992 1055.38 238.217 1047.1 247.004C950.912 349.044 861.628 538.044 833.891 682.392C844.699 704.305 853.139 732.267 858.695 753.629C860.12 759.106 861.404 764.251 862.434 768.625C864.875 778.984 866.188 785.696 866.188 785.696C866.188 785.696 865.324 782.435 861.785 772.174C861.111 770.207 860.359 768.059 859.471 765.53C859.008 764.294 858.513 763.07 857.987 761.859C851.714 747.273 834.36 716.49 826.72 703.085C820.665 720.845 814.951 738.72 809.581 756.699C831.631 797.046 845.07 866.188 845.07 866.188C845.07 866.188 843.903 861.707 838.363 846.066C833.442 832.237 808.942 789.303 803.137 779.267C793.208 815.923 789.264 840.667 792.823 846.691C799.73 858.363 806.306 878.509 812.085 900.784C825.134 950.967 834.199 1012.06 834.199 1012.06C834.199 1012.06 834.492 1016.12 834.99 1022.35C833.174 1064.49 834.262 1108.18 837.528 1147.67C841.848 1199.96 849.986 1244.87 860.359 1268.9L867.403 1265.07C852.173 1217.71 845.983 1155.65 848.692 1084.08C852.793 974.681 877.967 842.747 924.484 705.238C1003.08 497.658 1112.11 331.109 1211.91 251.568C1120.95 333.715 997.844 599.61 960.993 698.072C919.729 808.337 890.488 911.807 872.866 1010.94C903.273 918.001 1001.58 878.056 1001.58 878.056C1001.58 878.056 1049.8 818.588 1106.15 733.629C1072.4 741.327 1016.97 754.508 998.405 762.308C971.02 773.795 963.644 777.715 963.644 777.715C963.644 777.715 1052.34 723.695 1128.45 699.238C1233.11 534.397 1347.14 300.218 1232.31 197.783Z" fill="#003B57"/>
</g>
<defs>
<linearGradient id="paint0_linear_2_28" x1="41921.1" y1="1805.4" x2="41921.1" y2="72179.1" gradientUnits="userSpaceOnUse">
<stop stop-color="#97D9F6"/>
<stop offset="0.92024" stop-color="#0F80CC"/>
<stop offset="1" stop-color="#0F80CC"/>
</linearGradient>
<clipPath id="clip0_2_28">
<rect width="2500" height="1113" fill="white" transform="translate(301 174)"/>
</clipPath>
</defs>
</svg>
